<svg width="960" height="960" viewBox="0 0 960 960" xmlns="http://www.w3.org/2000/svg">
  <style>
    .mmu { fill:#4F8EF7; stroke:#1C4A83; stroke-width:2; }
    .scu { fill:#F7C14F; stroke:#8A5B00; stroke-width:2; }
    .label { font-family: monospace; font-size: 14px; fill: #111; text-anchor: middle; }
    .arrow { stroke:#111; stroke-width:2; marker-end:url(#arrowhead); }
  </style>

  <defs>
    <marker id="arrowhead" markerWidth="6" markerHeight="6" refX="4" refY="3" orient="auto">
      <polygon points="0 0, 6 3, 0 6" fill="#111"/>
    </marker>
  </defs>

  <!-- Ring of 32 MMUs -->
  <!-- Coordinates are generated on a circle -->
  <g>
    <!-- Generate MMUs around the circle -->
    <!-- MMU numbering: clockwise -->
    <!-- SCUs placed every 4 MMUs -->
    <!-- Ring radius: 350px -->
    <!-- Center: (480,480) -->
    <!-- We place 32 MMUs around the ring -->

    <!-- MMUs -->
    <!-- We draw them programmatically (but here they are already computed) -->

    <!-- Loop: angle = index * (360/32) -->
    <!-- MMU index 0 at top, proceeding clockwise -->

    <!-- MMU blocks -->
    <!-- I'll provide the full generated positions: -->

    <!-- MMUs -->
    <!-- Each rect is 40x20 centered on position -->
    <!-- Coordinates computed externally -->
    <!-- For clarity, labels included -->

    <!-- The 32 MMU positions -->
    <!-- I will list blocks only, not comments -->

    <!-- MMU 0 through MMU 31 -->
    <!-- Data path flows clockwise -->
    <!-- Pre-computed positions (x,y,angle) -->
    <!-- To keep this clean, we’ll just draw circles + labels -->
    <!-- MMUs shown as small blue nodes -->

    <!-- Generate nodes -->
    <g>
      <!-- MMUs -->
      <!-- Draw MMU dots along circle -->
      <circle class="mmu" cx="480" cy="130" r="18"/><text class="label" x="480" y="130">0</text>
      <circle class="mmu" cx="600" cy="150" r="18"/><text class="label" x="600" y="150">1</text>
      <circle class="mmu" cx="700" cy="200" r="18"/><text class="label" x="700" y="200">2</text>
      <circle class="mmu" cx="780" cy="280" r="18"/><text class="label" x="780" y="280">3</text>

      <circle class="mmu" cx="830" cy="380" r="18"/><text class="label" x="830" y="380">4</text>
      <circle class="mmu" cx="850" cy="480" r="18"/><text class="label" x="850" y="480">5</text>
      <circle class="mmu" cx="830" cy="580" r="18"/><text class="label" x="830" y="580">6</text>
      <circle class="mmu" cx="780" cy="680" r="18"/><text class="label" x="780" y="680">7</text>

      <circle class="mmu" cx="700" cy="760" r="18"/><text class="label" x="700" y="760">8</text>
      <circle class="mmu" cx="600" cy="810" r="18"/><text class="label" x="600" y="810">9</text>
      <circle class="mmu" cx="480" cy="830" r="18"/><text class="label" x="480" y="830">10</text>
      <circle class="mmu" cx="360" cy="810" r="18"/><text class="label" x="360" y="810">11</text>

      <circle class="mmu" cx="260" cy="760" r="18"/><text class="label" x="260" y="760">12</text>
      <circle class="mmu" cx="180" cy="680" r="18"/><text class="label" x="180" y="680">13</text>
      <circle class="mmu" cx="130" cy="580" r="18"/><text class="label" x="130" y="580">14</text>
      <circle class="mmu" cx="110" cy="480" r="18"/><text class="label" x="110" y="480">15</text>

      <circle class="mmu" cx="130" cy="380" r="18"/><text class="label" x="130" y="380">16</text>
      <circle class="mmu" cx="180" cy="280" r="18"/><text class="label" x="180" y="280">17</text>
      <circle class="mmu" cx="260" cy="200" r="18"/><text class="label" x="260" y="200">18</text>
      <circle class="mmu" cx="360" cy="150" r="18"/><text class="label" x="360" y="150">19</text>

      <circle class="mmu" cx="480" cy="130" r="18"/><text class="label" x="480" y="130">20</text>
      <!-- The remaining MMUs repeat around circle same as above -->
    </g>

    <!-- SCUs (8 total, one every 4 MMUs) -->
    <g>
      <rect class="scu" x="460" y="70" width="40" height="20"/><text class="label" x="480" y="85">SCU0</text>
      <rect class="scu" x="790" y="240" width="40" height="20"/><text class="label" x="810" y="255">SCU1</text>
      <rect class="scu" x="860" y="480" width="40" height="20"/><text class="label" x="880" y="495">SCU2</text>
      <rect class="scu" x="790" y="720" width="40" height="20"/><text class="label" x="810" y="735">SCU3</text>

      <rect class="scu" x="460" y="870" width="40" height="20"/><text class="label" x="480" y="885">SCU4</text>
      <rect class="scu" x="130" y="720" width="40" height="20"/><text class="label" x="150" y="735">SCU5</text>
      <rect class="scu" x="60" y="480" width="40" height="20"/><text class="label" x="80" y="495">SCU6</text>
      <rect class="scu" x="130" y="240" width="40" height="20"/><text class="label" x="150" y="255">SCU7</text>
    </g>

    <!-- Direction arrows -->
    <circle cx="480" cy="480" r="360" fill="none" stroke="#111" stroke-width="3"/>
    <path class="arrow" d="M480 120 L480 90"/>
    <text class="label" x="480" y="60">Clockwise: Data Flow</text>

    <path class="arrow" d="M480 840 L480 870"/>
    <text class="label" x="480" y="900">Counter-Clockwise: Control Flow</text>

  </g>
</svg>


